# xmcd
#
# Track frame offsets:
#	150
#	16052
#	30700
#	50417
#	65195
#	83200
#	96200
#	115765
#	130590
#	148437
#	165707
#	182100
#	203970
#
# Disc length: 2961 seconds
#
# Revision: 0
# Processed by: cddbd v1.5.1PL0 Copyright (c) Steve Scherf et al.
# Submitted via: dBpowerAMP V4.0
#
DISCID=b80b8f0d
DTITLE=Greg Champion - Champs
DYEAR=1900
DGENRE=Aussie Country
TTITLE0=88K From Alice
TTITLE1=Big Fat Broken Heart
TTITLE2=More Bad Weather
TTITLE3=White '64 Cortina
TTITLE4=Lights Out In Violet Town
TTITLE5=Cloud On The Moon
TTITLE6=If Ya Wanna Be In Country
TTITLE7=May Your Fridge Be Full Of Coldies
TTITLE8=Where Ya Headin' Campbell
TTITLE9=Ironbank Valley
TTITLE10=Those Dreams
TTITLE11=Goondiwindi Pork
TTITLE12=Next Thing I Do, I'll Go To Kakadu
EXTD=
EXTT0=
EXTT1=
EXTT2=
EXTT3=
EXTT4=
EXTT5=
EXTT6=
EXTT7=
EXTT8=
EXTT9=
EXTT10=
EXTT11=
EXTT12=
PLAYORDER=
